<?xml version="1.0" standalone="no"?>
<!DOCTYPE svg PUBLIC "-//W3C//DTD SVG 20010904//EN"
 "http://www.w3.org/TR/2001/REC-SVG-20010904/DTD/svg10.dtd">
<svg version="1.0" xmlns="http://www.w3.org/2000/svg"
 width="500.000000pt" height="500.000000pt" viewBox="0 0 500.000000 500.000000"
 preserveAspectRatio="xMidYMid meet">

<g transform="translate(0.000000,500.000000) scale(0.100000,-0.100000)"
fill="#000000" stroke="none">
<path d="M2382 4127 c-18 -5 -31 -15 -29 -21 2 -6 59 -25 128 -43 120 -30 174
-34 257 -17 46 9 22 32 -58 53 -150 41 -234 49 -298 28z"/>
<path d="M2373 3950 c-13 -5 -23 -14 -23 -19 0 -9 109 -41 216 -62 76 -15 177
-3 182 22 2 12 -20 21 -107 42 -111 27 -225 34 -268 17z"/>
<path d="M2360 3783 c-7 -31 -22 -110 -34 -175 l-21 -118 -50 -34 c-74 -50
-169 -156 -204 -228 -120 -253 -8 -562 251 -693 89 -44 163 -59 263 -52 301
22 524 251 525 539 0 158 -39 259 -139 358 -36 36 -87 76 -112 89 l-45 24 -23
140 c-31 191 -43 211 -36 62 3 -66 8 -145 11 -177 6 -55 8 -57 60 -93 65 -45
126 -110 153 -164 69 -134 66 -310 -6 -443 -33 -61 -124 -148 -189 -181 -137
-69 -285 -76 -407 -19 -223 104 -330 383 -228 595 31 65 117 164 198 227 32
25 32 26 48 173 17 169 19 227 6 227 -5 0 -15 -26 -21 -57z"/>
<path d="M2597 3676 c-9 -104 -8 -323 2 -411 5 -38 6 -73 2 -76 -3 -4 -22 -4
-41 -2 l-35 5 0 258 c0 226 -4 286 -19 269 -2 -2 -8 -84 -15 -181 -13 -214
-29 -324 -48 -344 -8 -8 -28 -14 -44 -14 -69 0 -139 -55 -139 -110 0 -67 85
-115 153 -86 30 12 43 26 63 71 l25 55 52 0 c63 0 67 -3 92 -58 25 -59 57 -82
112 -82 56 0 93 33 93 82 0 60 -36 93 -125 113 l-50 11 -12 70 c-6 38 -19 150
-28 249 -9 99 -20 198 -24 220 -6 37 -7 33 -14 -39z m-193 -607 c-19 -21 -49
-25 -59 -9 -10 16 13 38 43 42 34 4 39 -7 16 -33z m340 11 c14 -5 26 -17 26
-25 0 -24 -39 -15 -58 13 -16 24 -8 27 32 12z"/>
<path d="M1870 2659 c-36 -17 -77 -42 -92 -56 -29 -28 -37 -53 -17 -53 26 0
159 72 178 96 42 53 24 56 -69 13z"/>
<path d="M3070 2581 c0 -5 24 -42 53 -82 50 -71 116 -123 133 -106 12 11 -85
146 -125 173 -37 25 -61 31 -61 15z"/>
<path d="M2198 2338 c-30 -40 -60 -88 -66 -107 -15 -41 -16 -81 -2 -81 13 0
96 105 121 152 19 38 26 108 10 108 -5 0 -33 -33 -63 -72z"/>
<path d="M2673 2307 c5 -57 14 -102 27 -128 33 -63 44 -50 36 42 -7 88 -23
135 -51 159 -17 14 -18 11 -12 -73z"/>
<path d="M1405 1998 c-22 -21 -47 -60 -65 -107 -34 -83 -34 -85 -18 -75 6 4 3
-8 -9 -27 -21 -36 -47 -124 -58 -199 -4 -25 -15 -79 -25 -120 -10 -41 -21 -87
-24 -102 -4 -18 -18 -32 -43 -45 -45 -22 -78 -73 -69 -108 10 -38 65 -35 94 5
30 39 119 84 222 110 90 23 140 45 140 60 0 16 -124 12 -201 -6 -39 -9 -72
-14 -75 -12 -2 3 3 25 11 49 9 24 36 116 62 204 63 223 128 355 174 355 22 0
4 -94 -32 -163 -39 -79 -33 -97 24 -74 77 33 122 181 72 237 -51 57 -129 65
-180 18z m-42 -103 c-9 -19 -18 -33 -21 -31 -4 5 26 66 33 66 3 0 -3 -16 -12
-35z"/>
<path d="M2753 1705 c-34 -24 -108 -124 -195 -264 -43 -69 -78 -122 -78 -119
0 3 23 71 50 152 28 81 50 156 50 166 0 20 -33 60 -49 60 -17 0 -42 -32 -37
-46 5 -14 -58 -208 -74 -229 -5 -5 -20 -50 -34 -100 -15 -49 -35 -117 -46
-150 -23 -71 -40 -164 -40 -215 0 -40 31 -90 56 -90 15 0 15 1 44 152 30 162
50 204 195 419 108 160 185 228 185 164 0 -66 -165 -305 -210 -305 -27 0 -26
-32 3 -66 30 -35 45 -27 128 66 34 39 73 76 85 83 105 56 194 120 182 132 -3
3 -42 -11 -87 -33 l-80 -40 18 37 c34 67 44 113 32 157 -19 70 -58 97 -98 69z"/>
<path d="M3209 1653 l-32 -27 7 -83 c3 -46 12 -104 18 -129 12 -44 12 -47 -10
-63 -134 -95 -161 -130 -142 -187 14 -42 53 -64 112 -64 92 0 147 70 148 190
l1 65 80 50 c83 51 119 89 103 105 -6 6 -27 -2 -54 -21 -55 -37 -141 -82 -146
-76 -2 2 -11 40 -19 86 -13 67 -14 88 -4 116 10 27 10 37 0 49 -18 22 -24 20
-62 -11z m-3 -426 c-18 -43 -55 -70 -93 -65 -51 6 -28 52 57 114 l45 33 3 -23
c2 -13 -3 -40 -12 -59z"/>
<path d="M3780 1663 c-75 -39 -139 -171 -147 -306 -4 -77 -4 -77 29 -107 37
-34 84 -40 123 -14 18 12 143 161 218 262 7 8 7 16 0 23 -7 7 -30 -14 -73 -68
-85 -105 -139 -162 -173 -179 -49 -26 -56 -4 -36 99 11 53 15 58 54 77 24 12
64 43 89 70 36 38 46 57 46 83 0 62 -66 93 -130 60z m80 -57 c0 -27 -9 -42
-50 -80 -27 -25 -51 -46 -54 -46 -10 0 43 119 66 148 20 24 38 13 38 -22z
m-206 -220 c-3 -21 -9 -35 -11 -32 -3 3 -2 21 1 42 4 20 10 34 12 31 3 -3 2
-21 -2 -41z"/>
<path d="M1882 1620 c-47 -34 -85 -101 -108 -192 -17 -66 -13 -111 13 -140 39
-43 94 -10 167 102 26 39 48 70 50 70 2 0 -3 -23 -10 -52 -8 -29 -14 -63 -14
-76 0 -39 28 -91 54 -104 38 -17 68 1 122 74 45 61 114 187 114 208 0 24 -19
4 -75 -81 -64 -95 -110 -147 -122 -135 -12 12 15 163 37 205 23 46 25 72 8 89
-18 18 -49 14 -74 -9 l-23 -21 -20 40 c-31 61 -58 66 -119 22z m100 -65 c8
-36 5 -44 -36 -105 -25 -36 -57 -77 -71 -90 l-25 -23 0 36 c0 20 12 67 27 104
50 127 89 156 105 78z"/>
</g>
</svg>
