<?xml version="1.0" standalone="no"?>
<!DOCTYPE svg PUBLIC "-//W3C//DTD SVG 20010904//EN"
 "http://www.w3.org/TR/2001/REC-SVG-20010904/DTD/svg10.dtd">
<svg version="1.0" xmlns="http://www.w3.org/2000/svg"
 width="646.000000pt" height="507.000000pt" viewBox="0 0 646.000000 507.000000"
 preserveAspectRatio="xMidYMid meet">

<g transform="translate(0.000000,507.000000) scale(0.100000,-0.100000)"
fill="#000000" stroke="none">
<path d="M3000 4539 c-368 -230 -384 -241 -366 -254 25 -19 20 -70 -9 -89 -29
-19 -31 -37 -9 -75 15 -26 15 -48 -5 -307 -12 -153 -24 -296 -27 -317 -6 -37
-5 -38 14 -28 27 14 32 14 32 -4 0 -20 16 -19 24 2 6 15 8 14 20 -2 7 -11 18
-15 25 -11 7 5 21 0 32 -10 25 -22 25 -47 -12 334 -27 285 -29 316 -15 331 28
30 17 81 -16 81 -18 0 -20 4 -14 32 3 17 8 33 9 35 2 1 110 25 241 52 209 43
241 47 263 36 18 -9 33 -11 50 -4 35 13 38 11 18 -11 -21 -24 -43 -25 -72 -5
-18 13 -43 10 -242 -28 -121 -23 -221 -44 -221 -48 0 -8 22 -18 175 -84 72
-31 183 -79 247 -107 l118 -51 97 51 c54 29 182 96 285 150 103 53 188 100
188 103 0 3 -107 63 -237 133 -131 70 -269 145 -308 166 -38 22 -79 39 -90 39
-11 0 -99 -50 -195 -110z"/>
<path d="M3427 4009 l-168 -89 -186 82 -186 81 -24 -27 c-26 -31 -31 -76 -8
-76 10 0 15 -10 15 -30 0 -23 -4 -30 -20 -30 -16 0 -20 -7 -20 -30 0 -23 4
-30 20 -30 16 0 20 -7 20 -30 0 -23 -4 -30 -20 -30 -16 0 -20 -7 -20 -30 l0
-30 426 0 425 0 -3 28 c-2 19 -9 28 -25 30 -18 3 -23 10 -23 33 0 24 4 29 25
29 21 0 25 5 25 29 0 23 -5 30 -22 33 -28 4 -39 55 -14 64 24 9 19 49 -10 83
-14 17 -29 31 -32 31 -4 -1 -83 -41 -175 -91z"/>
<path d="M2825 3562 c0 -59 -4 -124 -8 -144 -4 -20 -49 -99 -101 -176 -180
-271 -256 -477 -256 -696 0 -153 36 -285 111 -413 48 -82 190 -222 274 -271
263 -154 587 -147 838 17 228 150 361 397 359 666 -2 219 -80 429 -258 696
-104 157 -114 185 -114 334 l0 95 -422 0 -423 0 0 -108z m275 -157 l0 -135
-90 -180 c-49 -99 -90 -189 -90 -200 0 -11 11 -27 25 -36 24 -16 27 -15 63 10
49 34 94 34 120 1 l20 -26 -23 -42 c-13 -23 -27 -61 -31 -83 -5 -35 -3 -45 15
-63 29 -29 65 -27 91 7 19 24 21 37 18 107 l-3 79 34 23 c42 28 61 29 94 3
l26 -21 -24 -46 c-29 -54 -32 -93 -7 -121 27 -31 55 -35 85 -11 23 17 27 28
27 69 0 27 -4 60 -10 74 -8 21 -5 28 17 46 26 20 83 28 83 10 0 -5 9 -14 21
-20 28 -15 69 11 69 44 0 13 -40 100 -90 193 l-90 170 0 137 0 136 40 0 c38 0
40 -1 40 -32 0 -48 27 -152 50 -197 11 -22 49 -80 84 -130 72 -102 162 -273
195 -370 32 -93 51 -243 41 -327 -10 -94 -26 -146 -66 -224 -47 -91 -46 -91
-66 -76 -16 12 -16 15 2 52 11 21 20 51 20 66 0 64 -49 130 -107 147 l-31 9
24 -42 c29 -51 31 -108 4 -161 -11 -22 -16 -41 -12 -43 18 -6 92 -64 92 -72 0
-26 -26 -17 -69 23 -26 25 -62 52 -80 61 l-32 17 21 29 c41 58 36 154 -12 215
-25 31 -88 65 -123 65 l-26 0 20 -26 c46 -58 50 -153 10 -223 -11 -18 -19 -34
-17 -35 43 -21 126 -90 152 -125 56 -77 60 -90 40 -112 -9 -10 -21 -19 -25
-19 -4 0 -18 24 -32 53 -30 65 -107 152 -158 178 -22 11 -39 20 -39 22 0 1 11
24 25 51 15 29 25 66 25 91 0 53 -35 121 -83 159 -35 28 -46 31 -111 31 -62 0
-78 -4 -114 -28 -84 -55 -113 -188 -59 -268 l23 -34 -56 -36 c-64 -41 -120
-105 -148 -167 -17 -38 -20 -41 -38 -28 -18 14 -18 16 -1 50 23 49 92 122 144
153 48 28 49 30 27 58 -41 55 -41 157 1 219 29 43 16 47 -45 16 -87 -45 -122
-155 -77 -242 l24 -48 -48 -31 c-27 -17 -62 -46 -78 -64 -25 -29 -31 -32 -42
-19 -15 18 5 42 55 69 l34 19 -19 35 c-25 48 -25 126 1 169 19 31 19 32 1 32
-25 0 -77 -44 -96 -81 -21 -39 -19 -108 4 -146 17 -27 18 -32 5 -37 -28 -11
-33 -6 -73 74 -56 113 -75 208 -67 335 13 204 87 381 259 622 66 93 93 155
102 234 12 104 8 99 75 99 l60 0 0 -135z m240 -19 l0 -144 80 -161 c46 -92 74
-161 67 -161 -7 0 -29 -9 -49 -20 l-37 -19 -43 24 c-54 31 -74 31 -133 0 l-48
-26 -29 28 c-20 19 -39 27 -63 27 -20 0 -34 3 -33 6 2 3 36 69 76 147 l72 142
0 150 0 151 70 0 70 0 0 -144z m56 -672 c-6 -24 -9 -25 -22 -13 -12 12 -12 21
-2 49 11 32 12 33 21 13 5 -12 6 -34 3 -49z m-230 -20 c-4 -13 -11 -24 -16
-24 -14 0 -12 47 2 73 l13 22 3 -24 c2 -12 1 -34 -2 -47z"/>
<path d="M2145 1761 c-111 -51 -220 -244 -241 -430 l-7 -60 -58 -38 c-64 -41
-76 -61 -59 -93 14 -26 28 -25 73 5 l37 26 0 -23 c0 -35 36 -87 66 -94 33 -8
140 11 219 39 55 20 60 25 63 55 4 45 -14 49 -107 23 -43 -11 -92 -21 -110
-21 -30 0 -31 1 -31 43 1 40 4 44 57 82 118 84 234 264 237 366 1 71 -18 115
-56 128 -39 14 -35 14 -83 -8z m45 -108 c-1 -72 -55 -172 -146 -271 -35 -38
-43 -43 -44 -27 -1 68 77 263 124 310 14 14 34 25 46 25 17 0 20 -6 20 -37z"/>
<path d="M2625 1414 c-77 -40 -137 -141 -139 -232 0 -49 3 -57 32 -83 18 -16
44 -29 58 -29 26 0 78 23 105 46 14 12 17 11 27 -11 23 -51 90 -45 152 14 38
36 41 42 34 78 -4 21 -8 39 -9 41 -1 1 -20 -16 -42 -38 -23 -23 -50 -40 -63
-40 -21 0 -22 3 -16 58 21 196 21 182 -6 182 -13 0 -33 7 -44 15 -25 19 -52
19 -89 -1z m65 -70 c0 -43 -35 -158 -55 -182 -20 -23 -25 -24 -39 -13 -35 30
-11 130 45 182 35 33 49 36 49 13z"/>
<path d="M3198 1409 c-31 -23 -63 -100 -73 -179 -5 -37 -21 -79 -50 -130 -61
-107 -79 -160 -73 -219 7 -69 30 -101 72 -101 67 0 120 97 133 241 l6 66 52
-9 c64 -12 122 2 165 38 25 22 30 33 30 71 l0 45 -40 -35 c-41 -35 -97 -57
-145 -57 -28 0 -28 0 12 29 79 57 107 124 83 196 -21 62 -115 87 -172 44z
m100 -87 c4 -38 -30 -105 -66 -128 -13 -9 -26 -14 -28 -11 -10 10 10 119 28
147 26 43 62 39 66 -8z m-188 -443 c-10 -17 -14 -18 -27 -8 -17 15 -13 55 14
140 l18 54 3 -82 c2 -48 -2 -92 -8 -104z"/>
<path d="M3829 1418 c-9 -7 -33 -35 -54 -63 -21 -27 -68 -80 -103 -117 -64
-65 -76 -98 -37 -98 9 0 31 -16 49 -35 31 -32 38 -35 90 -35 60 0 160 29 214
62 27 17 32 25 32 59 0 21 -1 39 -3 39 -1 0 -29 -13 -60 -30 -32 -16 -60 -30
-63 -30 -2 0 -4 10 -4 22 0 12 -5 48 -12 80 -11 55 -11 59 11 82 32 34 25 70
-14 74 -16 2 -37 -3 -46 -10z m-33 -263 c-19 -29 -42 -32 -75 -9 l-23 16 49
50 48 49 9 -40 c7 -32 5 -46 -8 -66z"/>
<path d="M4299 1407 c-95 -63 -111 -256 -25 -312 63 -42 155 -26 247 42 63 46
70 60 40 87 -19 17 -21 17 -53 -7 -48 -36 -113 -67 -141 -67 -29 0 -60 30 -39
38 39 13 109 72 125 104 34 69 -8 138 -84 138 -21 0 -50 -10 -70 -23z m96 -67
c8 -24 -7 -53 -39 -74 -36 -23 -46 -20 -46 13 0 58 70 108 85 61z"/>
</g>
</svg>
